<?xml version="1.0" standalone="no"?>
<!DOCTYPE svg PUBLIC "-//W3C//DTD SVG 20010904//EN"
 "http://www.w3.org/TR/2001/REC-SVG-20010904/DTD/svg10.dtd">
<svg version="1.0" xmlns="http://www.w3.org/2000/svg"
 width="280.000000pt" height="280.000000pt" viewBox="0 0 280.000000 280.000000"
 preserveAspectRatio="xMidYMid meet">
<metadata>
Created by potrace 1.14, written by Peter Selinger 2001-2017
</metadata>
<g transform="translate(0.000000,280.000000) scale(0.100000,-0.100000)"
fill="#000000" stroke="none">
<path d="M1385 2734 c-17 -13 -18 -16 -5 -25 11 -7 6 -8 -17 -4 -21 4 -44 1
-64 -9 -18 -9 -47 -16 -65 -16 -23 0 -44 -10 -69 -31 -37 -33 -44 -63 -21 -94
8 -11 12 -25 9 -32 -3 -7 0 -13 6 -13 6 0 11 -6 11 -13 0 -6 14 -18 30 -25 21
-10 30 -21 30 -37 0 -12 8 -26 18 -30 26 -12 231 -17 282 -8 40 7 45 12 48 37
3 21 11 31 33 39 16 6 29 17 29 24 0 7 4 13 8 13 16 0 34 87 23 108 -17 31
-66 62 -99 62 -16 0 -43 7 -61 16 -20 10 -44 14 -61 10 -22 -4 -28 -2 -24 8 9
23 -19 36 -41 20z m-15 -64 c16 -8 19 -21 19 -66 -1 -30 -4 -53 -7 -50 -3 4
-13 -1 -23 -10 -17 -15 -20 -14 -49 14 -37 38 -41 83 -8 106 26 19 42 20 68 6z
m138 -6 c32 -22 29 -68 -7 -104 -26 -26 -31 -28 -55 -17 -23 11 -26 18 -26 65
0 45 3 54 23 62 32 13 40 12 65 -6z m-258 -39 c0 -13 5 -35 11 -49 9 -19 9
-28 -2 -38 -19 -19 -69 -15 -81 6 -17 30 -5 79 22 93 37 19 50 16 50 -12z
m377 3 c8 -7 13 -25 11 -46 -2 -27 -10 -39 -32 -52 -28 -15 -31 -15 -49 3 -16
16 -17 23 -7 53 7 19 9 42 6 51 -5 13 -1 14 25 9 18 -3 38 -11 46 -18z m-237
-119 c0 -5 -6 -9 -13 -9 -8 0 -14 6 -14 14 0 8 6 12 14 9 7 -3 13 -9 13 -14z
m60 6 c0 -8 -7 -15 -15 -15 -26 0 -18 20 13 29 1 1 2 -6 2 -14z m-115 -5 c3
-5 -1 -10 -10 -10 -9 0 -13 5 -10 10 3 6 8 10 10 10 2 0 7 -4 10 -10z m160 0
c3 -5 -1 -10 -10 -10 -9 0 -13 5 -10 10 3 6 8 10 10 10 2 0 7 -4 10 -10z
m-210 -10 c-3 -5 -13 -10 -21 -10 -8 0 -12 5 -9 10 3 6 13 10 21 10 8 0 12 -4
9 -10z m270 0 c3 -5 -1 -10 -9 -10 -9 0 -16 5 -16 10 0 6 4 10 9 10 6 0 13 -4
16 -10z"/>
<path d="M575 2405 c-41 -40 -29 -92 26 -121 17 -8 63 -22 102 -30 79 -17 93
-25 83 -49 -5 -15 -10 -14 -38 7 -26 18 -50 24 -123 28 -90 5 -115 12 -115 32
0 7 4 7 13 1 16 -14 67 -22 67 -12 0 4 -8 14 -18 21 -11 7 -25 24 -31 37 -10
17 -15 20 -21 11 -6 -10 -9 -8 -12 6 -4 15 -9 11 -22 -19 -33 -75 10 -125 115
-134 60 -5 89 -16 89 -32 0 -4 -26 -6 -57 -3 -41 2 -75 -3 -116 -17 -82 -29
-117 -12 -117 55 0 13 -4 24 -10 24 -15 0 -12 -67 5 -99 22 -44 66 -52 162
-30 36 8 55 8 78 -1 l30 -13 -45 -12 c-25 -6 -80 -31 -123 -54 -96 -53 -135
-52 -170 6 -25 43 -34 29 -13 -21 17 -42 68 -76 113 -76 17 0 65 18 108 41 43
23 86 39 98 36 21 -3 21 -4 -3 -15 -38 -17 -51 -31 -112 -113 -31 -42 -68 -86
-83 -97 -36 -29 -94 -29 -129 -1 -32 25 -47 18 -22 -10 45 -49 138 -66 188
-33 15 10 53 52 86 93 58 74 77 89 109 89 11 0 7 -7 -11 -21 -35 -28 -71 -92
-91 -164 -50 -176 -102 -220 -215 -180 -24 8 -45 13 -48 11 -8 -9 61 -45 108
-56 94 -23 145 22 205 180 31 83 74 150 95 150 4 0 -4 -22 -17 -49 -19 -38
-29 -85 -43 -214 -11 -94 -25 -178 -34 -195 -21 -40 -71 -56 -153 -49 -34 4
-63 4 -63 1 0 -14 76 -34 127 -34 89 1 142 38 178 124 8 19 22 89 30 156 22
166 47 233 38 103 -4 -52 1 -90 21 -163 29 -106 33 -184 12 -233 -17 -43 -68
-85 -111 -93 -55 -10 -56 -28 -2 -21 94 13 166 70 187 148 7 27 9 90 5 182
l-7 142 25 -45 c25 -47 26 -75 1 -43 -13 16 -14 12 -9 -37 19 -175 18 -197 -9
-250 -33 -65 -14 -65 26 0 17 28 37 50 44 50 19 0 18 -7 -11 -44 -32 -42 -32
-62 0 -79 l26 -13 -21 -19 c-11 -10 -20 -13 -20 -7 0 7 -5 12 -11 12 -6 0 -8
-8 -4 -19 4 -13 -6 -29 -35 -54 -35 -32 -43 -35 -67 -26 -14 5 -39 7 -54 4
-21 -5 -30 -2 -39 14 -8 15 -21 21 -45 21 -30 0 -35 -3 -35 -23 0 -25 28 -57
48 -57 7 0 11 -3 11 -7 -1 -5 0 -12 1 -18 1 -5 1 -24 0 -42 -2 -40 27 -57 86
-50 51 5 57 -7 14 -31 -16 -9 -30 -23 -30 -30 0 -7 4 -11 9 -7 6 3 7 -9 4 -30
-5 -34 8 -48 22 -25 3 6 17 7 29 4 23 -5 43 17 31 36 -7 11 18 29 36 27 13 -2
72 -45 228 -164 2 -1 -1 -8 -6 -15 -17 -21 -22 -59 -13 -84 10 -26 55 -43 71
-27 7 7 2 13 -16 17 -31 8 -31 32 0 52 18 12 28 7 97 -44 42 -31 76 -60 75
-64 -1 -3 -54 -46 -117 -95 -107 -82 -154 -133 -138 -148 15 -15 68 9 148 66
46 34 86 56 88 50 7 -20 22 -12 19 10 -1 12 3 24 10 26 9 3 11 -9 7 -44 -4
-37 -1 -55 15 -81 26 -40 36 -40 62 0 20 33 22 86 3 133 -7 20 -7 20 14 1 14
-12 20 -26 16 -38 -3 -10 -1 -18 5 -18 6 0 11 5 11 10 0 19 22 10 78 -34 93
-71 172 -106 172 -76 0 25 -39 65 -146 147 -63 48 -114 90 -114 93 1 8 131
102 150 107 25 7 46 -23 30 -42 -7 -8 -19 -15 -27 -15 -8 0 -11 -4 -8 -10 9
-15 42 -12 59 6 18 17 22 84 6 100 -10 10 199 176 228 181 21 3 42 -15 37 -30
-7 -17 15 -46 22 -30 3 10 10 10 26 -2 33 -23 40 -18 32 21 -4 24 -3 34 4 29
6 -3 11 1 11 9 0 8 -10 18 -22 22 -21 6 -37 21 -38 34 0 3 20 4 44 2 61 -5 88
11 86 51 -3 55 0 67 14 67 18 0 46 38 46 62 0 28 -66 25 -81 -3 -8 -17 -17
-20 -40 -15 -16 3 -41 1 -56 -5 -23 -9 -31 -6 -65 28 -21 20 -38 45 -38 55 0
10 -5 15 -13 12 -8 -3 -19 1 -25 9 -9 11 -7 16 13 25 32 15 32 36 0 78 -29 37
-30 44 -11 44 7 0 27 -22 44 -50 40 -65 59 -65 25 0 -33 65 -41 136 -19 190 9
22 16 57 16 78 -1 35 -2 36 -15 18 -26 -35 -26 -10 0 45 l26 54 -6 -156 c-6
-132 -4 -161 10 -194 30 -74 94 -120 182 -132 54 -7 53 11 -2 21 -40 8 -90 46
-110 87 -22 42 -18 133 11 244 20 77 25 115 21 165 -9 114 19 32 36 -109 25
-191 72 -267 172 -279 56 -6 127 5 151 23 17 13 11 14 -53 8 -86 -7 -127 6
-149 49 -9 17 -24 104 -35 197 -15 126 -25 178 -43 214 -12 26 -20 47 -16 47
21 0 64 -69 99 -161 58 -149 108 -191 201 -169 47 11 116 47 108 56 -3 2 -24
-3 -48 -11 -54 -19 -83 -19 -120 0 -35 18 -58 60 -95 175 -30 95 -54 140 -92
170 -20 15 -22 20 -9 20 30 0 54 -19 100 -79 45 -58 65 -99 25 -52 -11 13 -22
22 -24 19 -8 -7 36 -131 54 -152 21 -24 55 -37 106 -38 42 0 105 25 105 43 0
6 -6 6 -19 -1 -52 -27 -138 9 -173 73 -9 17 -8 17 21 3 56 -29 119 -19 176 27
37 31 27 48 -11 18 -17 -13 -41 -21 -67 -21 -35 0 -46 6 -86 48 -25 26 -62 70
-81 97 -20 28 -53 61 -74 75 -33 21 -36 25 -18 28 11 2 54 -15 95 -37 46 -26
87 -41 108 -41 47 0 97 33 115 76 20 47 12 68 -10 26 -19 -37 -58 -56 -97 -48
-14 3 -54 22 -88 42 -35 21 -84 43 -110 50 l-46 12 30 12 c24 9 44 9 95 -2 82
-18 124 -9 145 32 17 33 20 100 5 100 -5 0 -10 -11 -10 -24 0 -67 -36 -85
-118 -56 -61 22 -132 26 -163 10 -10 -6 -19 -7 -19 -2 0 22 40 40 99 45 98 8
139 50 119 121 -12 46 -31 58 -23 16 11 -61 -8 -74 -119 -80 -78 -5 -101 -10
-126 -28 -27 -20 -31 -21 -36 -7 -10 24 4 32 83 49 39 8 85 22 102 30 55 29
67 81 26 121 -30 31 -50 34 -35 5 14 -26 5 -57 -21 -71 -11 -5 -63 -18 -117
-29 -124 -23 -143 -31 -176 -71 -53 -63 -57 -115 -11 -145 20 -13 30 -14 57
-5 30 11 35 9 51 -11 24 -29 16 -84 -19 -138 -42 -63 -153 -130 -216 -130 -12
0 -18 8 -18 24 0 17 -8 27 -29 36 -38 16 -46 47 -18 71 12 9 19 21 15 25 -4 4
-14 2 -21 -5 -11 -9 -17 -8 -26 3 -8 10 -9 16 -1 21 5 3 10 14 9 23 0 11 -3
12 -6 5 -7 -20 -31 -15 -43 7 -6 11 -7 20 -1 20 5 0 12 7 15 16 4 11 1 14 -13
9 -20 -6 -38 20 -21 30 14 9 12 25 -2 22 -7 -1 -13 10 -13 26 -1 16 4 27 12
27 7 0 13 5 13 10 0 6 11 3 25 -6 14 -9 34 -14 47 -11 12 4 28 2 34 -4 22 -18
59 -7 59 19 0 12 -4 21 -10 20 -5 -2 -9 -6 -8 -10 6 -16 -20 -7 -49 17 l-30
25 27 0 c20 0 26 -4 21 -15 -3 -9 0 -15 8 -15 13 0 26 21 26 42 0 6 -21 30
-47 54 -57 53 -97 63 -158 39 -60 -22 -91 -17 -87 14 2 20 0 22 -13 11 -21
-18 -19 -46 6 -69 22 -20 19 -41 -6 -41 -7 0 -15 5 -17 12 -3 9 -6 9 -11 1 -4
-6 0 -19 9 -27 19 -20 11 -54 -9 -37 -9 7 -17 7 -24 0 -7 -7 -14 -5 -23 7 -12
14 -12 17 3 25 9 6 17 17 17 26 0 13 -3 13 -15 3 -12 -10 -19 -10 -27 -2 -9 9
-7 17 10 32 26 24 28 52 7 70 -13 11 -15 9 -13 -11 4 -31 -27 -36 -87 -14 -60
24 -100 14 -159 -38 -42 -38 -48 -47 -42 -70 3 -15 13 -27 21 -27 9 0 12 6 9
15 -5 11 1 15 21 15 l27 0 -30 -25 c-35 -29 -52 -32 -52 -9 0 13 -3 14 -15 4
-11 -9 -12 -17 -4 -31 10 -20 54 -26 64 -9 4 6 15 8 25 5 11 -3 33 1 50 10 17
9 30 11 30 5 0 -5 6 -10 13 -10 8 0 13 -11 12 -27 0 -16 -6 -27 -13 -25 -14 2
-16 -14 -2 -23 17 -11 -1 -36 -22 -29 -17 5 -18 3 -9 -14 15 -28 3 -55 -20
-49 -20 5 -26 -8 -9 -18 8 -5 7 -11 -1 -21 -9 -11 -15 -12 -26 -3 -7 7 -17 9
-21 5 -4 -4 2 -15 13 -24 28 -23 20 -57 -16 -72 -20 -9 -29 -19 -29 -36 0 -74
-202 31 -249 129 -26 53 -27 88 -3 117 16 20 21 21 41 10 30 -16 67 -5 87 25
13 20 14 30 4 59 -27 82 -68 109 -210 136 -55 10 -108 24 -119 29 -26 14 -35
45 -21 71 15 29 -5 26 -35 -5z m593 -211 c-9 -9 -21 -13 -28 -9 -14 9 5 25 30
25 12 0 12 -3 -2 -16z m501 7 c9 -6 10 -11 2 -15 -13 -8 -31 1 -31 15 0 11 11
11 29 0z m-241 -50 c-2 -9 -11 -17 -21 -19 -21 -4 -35 27 -17 38 19 12 42 0
38 -19z m0 -65 c-4 -28 -42 -28 -46 0 -2 16 3 20 23 20 20 0 25 -4 23 -20z m5
-65 c-7 -29 -62 -19 -63 12 0 4 15 7 34 7 28 0 33 -3 29 -19z m-13 -56 c-10
-12 -16 -13 -26 -4 -20 16 -18 19 12 19 22 0 25 -2 14 -15z m-370 -433 c-26
-4 -27 -4 -36 33 l-7 30 32 -30 c31 -28 31 -30 11 -33z m744 24 c-5 -20 -12
-26 -32 -26 l-26 0 29 30 c33 34 39 33 29 -4z m-776 -298 c-17 -32 -30 -44
-51 -46 -37 -4 -34 11 11 53 52 49 69 46 40 -7z m267 22 c17 -19 17 -20 -15
-37 -18 -10 -44 -28 -59 -41 -25 -22 -26 -22 -6 -37 17 -14 18 -17 4 -31 -9
-8 -31 -23 -50 -32 -30 -15 -34 -22 -34 -56 0 -24 5 -41 14 -44 10 -3 11 2 6
18 -5 16 -4 21 6 18 26 -9 21 -45 -11 -82 -25 -28 -40 -36 -65 -36 -18 0 -44
-9 -58 -20 -28 -22 -46 -19 -65 10 -11 18 -9 21 11 29 24 10 45 41 27 41 -6 0
-10 11 -10 25 0 25 -23 35 -35 15 -3 -5 -11 -10 -16 -10 -6 0 -7 5 -4 10 3 6
0 10 -7 10 -7 0 -4 6 7 13 20 11 25 13 46 16 5 0 9 11 7 23 -2 11 2 23 9 25 7
3 9 -3 6 -16 -8 -30 5 -71 22 -71 18 0 20 17 3 23 -10 3 -10 11 -3 32 7 21 22
32 55 44 62 22 67 26 91 74 24 47 77 107 94 107 7 0 20 -9 30 -20z m309 -10
c19 -17 40 -46 46 -64 14 -44 49 -75 101 -90 39 -12 44 -17 47 -45 2 -20 -1
-31 -9 -31 -10 0 -10 -3 -1 -12 15 -15 42 7 43 36 0 11 3 15 6 9 2 -7 12 -13
21 -13 20 -1 62 -30 43 -30 -7 0 -9 -4 -6 -10 9 -15 -2 -12 -30 6 -25 16 -25
16 -25 -15 0 -17 -5 -31 -10 -31 -7 0 -7 -6 0 -20 6 -11 17 -20 25 -20 27 0
17 -31 -17 -58 -14 -11 -20 -9 -42 13 -17 17 -36 25 -59 25 -23 0 -41 8 -59
28 -38 40 -49 67 -36 80 19 19 30 14 23 -9 -5 -16 -3 -20 6 -17 9 3 14 20 14
44 0 34 -4 41 -34 56 -45 22 -71 49 -53 55 23 9 13 44 -19 61 -65 36 -66 38
-45 61 25 27 29 27 70 -9z m238 -7 c45 -44 47 -55 11 -51 -18 2 -35 15 -50 37
-42 63 -19 71 39 14z m-505 -265 c0 -67 8 -136 22 -198 21 -92 28 -210 14
-210 -5 1 -21 11 -37 24 -27 23 -28 25 -12 47 20 30 20 74 -1 200 -14 85 -14
110 -4 169 7 39 14 70 15 70 2 0 3 -46 3 -102z m163 32 c10 -59 9 -86 -4 -164
-22 -126 -21 -177 4 -208 l19 -25 -27 -20 c-57 -41 -55 -44 -49 58 3 52 13
123 21 159 9 36 16 111 16 168 1 56 2 102 5 102 2 0 9 -32 15 -70z m450 -47
c0 -33 -24 -25 -28 10 -3 21 0 26 12 21 9 -3 16 -17 16 -31z m-1040 18 c0 -15
-12 -41 -19 -41 -3 0 -6 11 -6 25 0 14 6 25 13 25 6 0 12 -4 12 -9z m335 -208
c-5 -21 -10 -22 -59 -19 -68 5 -81 12 -61 32 20 20 20 40 0 24 -11 -9 -19 -10
-26 -3 -8 8 5 16 40 28 51 17 89 59 92 101 1 11 6 -17 11 -61 5 -44 6 -90 3
-102z m433 63 c36 -13 50 -22 43 -29 -7 -7 -15 -6 -26 3 -19 16 -20 1 0 -27
13 -18 13 -22 0 -33 -12 -10 -15 -10 -15 0 0 9 -13 11 -49 6 -32 -4 -52 -3
-56 5 -4 6 -4 49 0 95 l7 85 21 -43 c19 -36 30 -46 75 -62z"/>
<path d="M2270 2327 c0 -8 -11 -24 -25 -37 -33 -31 -32 -37 5 -32 38 5 52 24
44 56 -6 27 -24 36 -24 13z"/>
<path d="M420 2227 c0 -22 23 -69 43 -85 10 -9 23 -8 56 5 42 16 42 17 19 29
-13 8 -35 13 -50 14 -17 0 -34 10 -47 28 -16 21 -20 23 -21 9z"/>
<path d="M2369 2220 c-8 -12 -35 -26 -62 -33 -27 -7 -48 -16 -48 -21 0 -5 16
-15 35 -21 44 -15 69 -1 86 51 14 42 9 53 -11 24z"/>
<path d="M340 2065 c0 -21 45 -65 67 -66 38 -3 60 4 111 33 58 33 62 46 10 30
-18 -6 -56 -13 -85 -16 -44 -6 -56 -3 -73 14 -24 24 -30 25 -30 5z"/>
<path d="M2437 2059 c-15 -16 -26 -19 -70 -13 -29 3 -67 10 -85 16 -53 16 -48
3 11 -31 79 -45 136 -42 162 10 24 45 15 53 -18 18z"/>
<path d="M487 1911 c-20 -10 -48 -27 -60 -39 -28 -26 -82 -29 -115 -6 -33 23
-26 0 9 -30 56 -47 137 -29 189 42 43 59 41 62 -23 33z"/>
<path d="M2270 1925 c0 -3 14 -24 30 -47 49 -68 131 -89 184 -47 31 24 36 45
7 29 -35 -18 -86 -12 -111 14 -12 14 -35 28 -51 31 -16 4 -31 11 -34 16 -6 9
-25 13 -25 4z"/>
<path d="M505 1728 c-74 -90 -131 -117 -186 -88 -13 7 -19 7 -19 1 0 -18 63
-43 105 -43 83 2 113 26 139 112 10 30 20 61 22 68 13 29 -14 7 -61 -50z"/>
<path d="M611 1633 c-13 -32 -33 -86 -46 -121 -12 -35 -33 -75 -46 -89 -22
-23 -29 -25 -81 -20 -32 3 -58 3 -58 1 0 -12 65 -34 100 -34 88 0 144 76 155
209 3 46 9 90 12 97 3 8 1 14 -5 14 -5 0 -19 -26 -31 -57z"/>
<path d="M2164 1673 c2 -10 8 -54 11 -98 11 -129 68 -205 155 -205 36 0 100
22 100 35 0 3 -20 2 -44 -1 -91 -13 -101 -2 -177 199 -18 48 -37 87 -41 87 -5
0 -7 -8 -4 -17z"/>
<path d="M747 1546 c-4 -10 -10 -60 -14 -110 -3 -50 -12 -103 -19 -117 -19
-38 -68 -77 -116 -91 -31 -9 -36 -13 -22 -18 49 -18 152 37 188 100 16 26 20
52 20 110 0 81 -24 161 -37 126z"/>
<path d="M2048 1554 c-15 -24 -30 -134 -24 -174 9 -63 37 -105 93 -140 36 -23
58 -30 92 -29 l46 1 -38 12 c-47 14 -102 58 -121 94 -7 15 -16 65 -19 112 -6
86 -19 141 -29 124z"/>
</g>
</svg>
